<svg width="18" height="22" viewBox="0 0 18 22" fill="none" xmlns="http://www.w3.org/2000/svg">
<path fill-rule="evenodd" clip-rule="evenodd" d="M10.5607 0.255492C11.0603 0.412956 11.4 0.876213 11.4 1.39998V7.39998L16.2 7.39998C16.6474 7.39998 17.0577 7.64893 17.2644 8.04581C17.471 8.44268 17.4397 8.92157 17.1831 9.28813L8.78306 21.2881C8.4827 21.7172 7.93875 21.9019 7.43921 21.7445C6.93968 21.587 6.59998 21.1237 6.59998 20.6L6.59998 14.6H1.79998C1.35253 14.6 0.942242 14.351 0.735605 13.9542C0.528967 13.5573 0.560305 13.0784 0.816901 12.7118L9.2169 0.711822C9.51726 0.282738 10.0612 0.0980275 10.5607 0.255492Z" fill="#BF83FC"/>
</svg>
