<svg width="18" height="20" viewBox="0 0 18 20" fill="none" xmlns="http://www.w3.org/2000/svg">
<path fill-rule="evenodd" clip-rule="evenodd" d="M3.00001 8.79999V6.39999C3.00001 3.08629 5.6863 0.399994 9.00001 0.399994C12.3137 0.399994 15 3.08629 15 6.39999V8.79999C16.3255 8.79999 17.4 9.87451 17.4 11.2V17.2C17.4 18.5255 16.3255 19.6 15 19.6H3.00001C1.67452 19.6 0.600006 18.5255 0.600006 17.2V11.2C0.600006 9.87451 1.67452 8.79999 3.00001 8.79999ZM12.6 6.39999V8.79999H5.40001V6.39999C5.40001 4.41177 7.01178 2.79999 9.00001 2.79999C10.9882 2.79999 12.6 4.41177 12.6 6.39999Z" fill="#2463EB"/>
</svg>
