<svg width="20" height="20" viewBox="0 0 20 20" fill="none" xmlns="http://www.w3.org/2000/svg">
<path fill-rule="evenodd" clip-rule="evenodd" d="M4.00002 0.400024C4.66277 0.400024 5.20002 0.937283 5.20002 1.60002V2.80002H6.40002C7.06277 2.80002 7.60002 3.33728 7.60002 4.00002C7.60002 4.66277 7.06277 5.20002 6.40002 5.20002H5.20002V6.40002C5.20002 7.06277 4.66277 7.60002 4.00002 7.60002C3.33728 7.60002 2.80002 7.06277 2.80002 6.40002V5.20002H1.60002C0.937283 5.20002 0.400024 4.66277 0.400024 4.00002C0.400024 3.33728 0.937283 2.80002 1.60002 2.80002H2.80002V1.60002C2.80002 0.937283 3.33728 0.400024 4.00002 0.400024ZM4.00002 12.4C4.66277 12.4 5.20002 12.9373 5.20002 13.6V14.8H6.40002C7.06277 14.8 7.60002 15.3373 7.60002 16C7.60002 16.6628 7.06277 17.2 6.40002 17.2H5.20002V18.4C5.20002 19.0628 4.66277 19.6 4.00002 19.6C3.33728 19.6 2.80002 19.0628 2.80002 18.4V17.2H1.60002C0.937283 17.2 0.400024 16.6628 0.400024 16C0.400024 15.3373 0.937283 14.8 1.60002 14.8H2.80002V13.6C2.80002 12.9373 3.33728 12.4 4.00002 12.4Z" fill="#FB923C"/>
<path fill-rule="evenodd" clip-rule="evenodd" d="M12.4 0.400024C12.9444 0.400024 13.4207 0.766604 13.56 1.29295L14.9751 6.63874L18.9996 8.9606C19.3711 9.17491 19.6 9.57117 19.6 10C19.6 10.4289 19.3711 10.8251 18.9996 11.0394L14.9751 13.3613L13.56 18.7071C13.4207 19.2334 12.9444 19.6 12.4 19.6C11.8555 19.6 11.3792 19.2334 11.2399 18.7071L9.82485 13.3613L5.80035 11.0394C5.42889 10.8251 5.20002 10.4289 5.20002 10C5.20002 9.57117 5.42889 9.17492 5.80035 8.96061L9.82485 6.63874L11.2399 1.29295C11.3792 0.766604 11.8555 0.400024 12.4 0.400024Z" fill="#FB923C"/>
</svg>
