<svg width="32" height="32" viewBox="0 0 32 32" fill="none" xmlns="http://www.w3.org/2000/svg">
<path fill-rule="evenodd" clip-rule="evenodd" d="M16 0C19.6819 0 22.6667 2.98477 22.6667 6.66667L9.33333 6.66667C9.33333 2.98477 12.3181 0 16 0ZM8 16C8 11.5817 11.5817 8 16 8C20.4183 8 24 11.5817 24 16C24 20.4183 20.4183 24 16 24C11.5817 24 8 20.4183 8 16ZM6.66667 9.33333C2.98477 9.33333 0 12.3181 0 16C0 19.6819 2.98477 22.6667 6.66667 22.6667V9.33333ZM32 16C32 19.6819 29.0152 22.6667 25.3333 22.6667L25.3333 9.33333C29.0152 9.33333 32 12.3181 32 16ZM9.33333 25.3333C9.33333 29.0152 12.3181 32 16 32C19.6819 32 22.6667 29.0152 22.6667 25.3333H9.33333ZM25.3333 2.66667C27.5425 2.66667 29.3333 4.45753 29.3333 6.66667L25.3333 6.66667V2.66667ZM25.3333 29.3333C27.5425 29.3333 29.3333 27.5425 29.3333 25.3333H25.3333V29.3333ZM2.66667 6.66667C2.66667 4.45753 4.45753 2.66667 6.66667 2.66667L6.66667 6.66667L2.66667 6.66667ZM2.66667 25.3333C2.66667 27.5425 4.45753 29.3333 6.66667 29.3333L6.66667 25.3333H2.66667Z" fill="white"/>
</svg>
